<mxfile host="app.diagrams.net" modified="2023-08-15T04:07:50.444Z" agent="Mozilla/5.0 (Macintosh; Intel Mac OS X 10_15_7) AppleWebKit/537.36 (KHTML, like Gecko) Chrome/115.0.0.0 Safari/537.36" etag="Q2BAmvfxJHE_3ThjCr90" version="21.6.8" type="device">
  <diagram name="Page-1" id="e5QWWkUa4OF2I5kuQVwZ">
    <mxGraphModel dx="1780" dy="1742" grid="1" gridSize="10" guides="1" tooltips="1" connect="1" arrows="1" fold="1" page="1" pageScale="1" pageWidth="850" pageHeight="1100" math="0" shadow="0">
      <root>
        <mxCell id="0" />
        <mxCell id="1" parent="0" />
        <mxCell id="GSTYfhtXiv9FTKrWvcwD-5" style="edgeStyle=orthogonalEdgeStyle;rounded=0;orthogonalLoop=1;jettySize=auto;html=1;entryX=0.5;entryY=0;entryDx=0;entryDy=0;" parent="1" source="GSTYfhtXiv9FTKrWvcwD-2" target="GSTYfhtXiv9FTKrWvcwD-3" edge="1">
          <mxGeometry relative="1" as="geometry" />
        </mxCell>
        <mxCell id="GSTYfhtXiv9FTKrWvcwD-6" style="edgeStyle=orthogonalEdgeStyle;rounded=0;orthogonalLoop=1;jettySize=auto;html=1;" parent="1" source="GSTYfhtXiv9FTKrWvcwD-2" target="GSTYfhtXiv9FTKrWvcwD-7" edge="1">
          <mxGeometry relative="1" as="geometry">
            <mxPoint x="200" y="260" as="targetPoint" />
          </mxGeometry>
        </mxCell>
        <mxCell id="GSTYfhtXiv9FTKrWvcwD-26" style="edgeStyle=orthogonalEdgeStyle;rounded=0;orthogonalLoop=1;jettySize=auto;html=1;entryX=0.5;entryY=1;entryDx=0;entryDy=0;" parent="1" source="GSTYfhtXiv9FTKrWvcwD-2" target="GSTYfhtXiv9FTKrWvcwD-24" edge="1">
          <mxGeometry relative="1" as="geometry" />
        </mxCell>
        <mxCell id="GSTYfhtXiv9FTKrWvcwD-28" style="edgeStyle=orthogonalEdgeStyle;rounded=0;orthogonalLoop=1;jettySize=auto;html=1;entryX=0.5;entryY=1;entryDx=0;entryDy=0;" parent="1" target="GSTYfhtXiv9FTKrWvcwD-30" edge="1">
          <mxGeometry relative="1" as="geometry">
            <mxPoint x="350" y="200" as="targetPoint" />
            <mxPoint x="250" y="260" as="sourcePoint" />
          </mxGeometry>
        </mxCell>
        <mxCell id="GSTYfhtXiv9FTKrWvcwD-32" style="edgeStyle=orthogonalEdgeStyle;rounded=0;orthogonalLoop=1;jettySize=auto;html=1;" parent="1" source="GSTYfhtXiv9FTKrWvcwD-2" target="GSTYfhtXiv9FTKrWvcwD-33" edge="1">
          <mxGeometry relative="1" as="geometry">
            <mxPoint x="380" y="280" as="targetPoint" />
          </mxGeometry>
        </mxCell>
        <mxCell id="GSTYfhtXiv9FTKrWvcwD-38" style="edgeStyle=orthogonalEdgeStyle;rounded=0;orthogonalLoop=1;jettySize=auto;html=1;" parent="1" source="GSTYfhtXiv9FTKrWvcwD-2" target="GSTYfhtXiv9FTKrWvcwD-39" edge="1">
          <mxGeometry relative="1" as="geometry">
            <mxPoint x="340" y="150" as="targetPoint" />
          </mxGeometry>
        </mxCell>
        <mxCell id="GSTYfhtXiv9FTKrWvcwD-44" style="edgeStyle=orthogonalEdgeStyle;rounded=0;orthogonalLoop=1;jettySize=auto;html=1;" parent="1" source="GSTYfhtXiv9FTKrWvcwD-2" target="GSTYfhtXiv9FTKrWvcwD-45" edge="1">
          <mxGeometry relative="1" as="geometry">
            <mxPoint x="160" y="330" as="targetPoint" />
          </mxGeometry>
        </mxCell>
        <mxCell id="GSTYfhtXiv9FTKrWvcwD-115" style="edgeStyle=orthogonalEdgeStyle;rounded=0;orthogonalLoop=1;jettySize=auto;html=1;entryX=0.5;entryY=0;entryDx=0;entryDy=0;" parent="1" source="GSTYfhtXiv9FTKrWvcwD-2" target="GSTYfhtXiv9FTKrWvcwD-112" edge="1">
          <mxGeometry relative="1" as="geometry" />
        </mxCell>
        <mxCell id="GSTYfhtXiv9FTKrWvcwD-126" style="edgeStyle=orthogonalEdgeStyle;rounded=0;orthogonalLoop=1;jettySize=auto;html=1;entryX=0;entryY=0.5;entryDx=0;entryDy=0;" parent="1" source="GSTYfhtXiv9FTKrWvcwD-2" target="GSTYfhtXiv9FTKrWvcwD-125" edge="1">
          <mxGeometry relative="1" as="geometry" />
        </mxCell>
        <mxCell id="GSTYfhtXiv9FTKrWvcwD-128" style="edgeStyle=orthogonalEdgeStyle;rounded=0;orthogonalLoop=1;jettySize=auto;html=1;" parent="1" source="GSTYfhtXiv9FTKrWvcwD-2" target="GSTYfhtXiv9FTKrWvcwD-129" edge="1">
          <mxGeometry relative="1" as="geometry">
            <mxPoint x="689.9999999999998" y="260" as="targetPoint" />
          </mxGeometry>
        </mxCell>
        <mxCell id="GSTYfhtXiv9FTKrWvcwD-135" style="edgeStyle=orthogonalEdgeStyle;rounded=0;orthogonalLoop=1;jettySize=auto;html=1;entryX=0.5;entryY=0;entryDx=0;entryDy=0;" parent="1" source="GSTYfhtXiv9FTKrWvcwD-2" target="GSTYfhtXiv9FTKrWvcwD-139" edge="1">
          <mxGeometry relative="1" as="geometry">
            <mxPoint x="310" y="490" as="targetPoint" />
          </mxGeometry>
        </mxCell>
        <mxCell id="GSTYfhtXiv9FTKrWvcwD-141" style="edgeStyle=orthogonalEdgeStyle;rounded=0;orthogonalLoop=1;jettySize=auto;html=1;" parent="1" source="GSTYfhtXiv9FTKrWvcwD-2" target="GSTYfhtXiv9FTKrWvcwD-143" edge="1">
          <mxGeometry relative="1" as="geometry">
            <mxPoint x="140" y="340" as="targetPoint" />
          </mxGeometry>
        </mxCell>
        <mxCell id="GSTYfhtXiv9FTKrWvcwD-2" value="Tierra" style="whiteSpace=wrap;html=1;align=center;fillColor=#dae8fc;strokeColor=#6c8ebf;gradientColor=#7ea6e0;" parent="1" vertex="1">
          <mxGeometry x="250" y="240" width="100" height="40" as="geometry" />
        </mxCell>
        <mxCell id="GSTYfhtXiv9FTKrWvcwD-3" value="nombre" style="ellipse;whiteSpace=wrap;html=1;align=center;" parent="1" vertex="1">
          <mxGeometry x="190" y="370" width="100" height="40" as="geometry" />
        </mxCell>
        <mxCell id="GSTYfhtXiv9FTKrWvcwD-7" value="&lt;font style=&quot;font-size: 10px;&quot;&gt;precioSugerido&lt;/font&gt;" style="ellipse;whiteSpace=wrap;html=1;align=center;" parent="1" vertex="1">
          <mxGeometry x="20" y="240" width="100" height="40" as="geometry" />
        </mxCell>
        <mxCell id="GSTYfhtXiv9FTKrWvcwD-15" style="edgeStyle=orthogonalEdgeStyle;rounded=0;orthogonalLoop=1;jettySize=auto;html=1;" parent="1" source="GSTYfhtXiv9FTKrWvcwD-14" target="GSTYfhtXiv9FTKrWvcwD-16" edge="1">
          <mxGeometry relative="1" as="geometry">
            <mxPoint x="70.5" y="-40" as="targetPoint" />
          </mxGeometry>
        </mxCell>
        <mxCell id="GSTYfhtXiv9FTKrWvcwD-21" value="" style="edgeStyle=orthogonalEdgeStyle;rounded=0;orthogonalLoop=1;jettySize=auto;html=1;" parent="1" source="GSTYfhtXiv9FTKrWvcwD-14" target="GSTYfhtXiv9FTKrWvcwD-20" edge="1">
          <mxGeometry relative="1" as="geometry" />
        </mxCell>
        <mxCell id="GSTYfhtXiv9FTKrWvcwD-25" value="" style="edgeStyle=orthogonalEdgeStyle;rounded=0;orthogonalLoop=1;jettySize=auto;html=1;" parent="1" source="GSTYfhtXiv9FTKrWvcwD-14" target="GSTYfhtXiv9FTKrWvcwD-24" edge="1">
          <mxGeometry relative="1" as="geometry" />
        </mxCell>
        <mxCell id="GSTYfhtXiv9FTKrWvcwD-14" value="TipoTierra" style="whiteSpace=wrap;html=1;align=center;fillColor=#dae8fc;strokeColor=#6c8ebf;gradientColor=#7ea6e0;" parent="1" vertex="1">
          <mxGeometry x="100" y="-170" width="100" height="40" as="geometry" />
        </mxCell>
        <mxCell id="GSTYfhtXiv9FTKrWvcwD-16" value="nombre" style="ellipse;whiteSpace=wrap;html=1;align=center;" parent="1" vertex="1">
          <mxGeometry x="-60" y="-200" width="100" height="40" as="geometry" />
        </mxCell>
        <mxCell id="GSTYfhtXiv9FTKrWvcwD-19" style="edgeStyle=orthogonalEdgeStyle;rounded=0;orthogonalLoop=1;jettySize=auto;html=1;entryX=0.5;entryY=1;entryDx=0;entryDy=0;" parent="1" source="GSTYfhtXiv9FTKrWvcwD-17" target="GSTYfhtXiv9FTKrWvcwD-18" edge="1">
          <mxGeometry relative="1" as="geometry" />
        </mxCell>
        <mxCell id="GSTYfhtXiv9FTKrWvcwD-23" style="edgeStyle=orthogonalEdgeStyle;rounded=0;orthogonalLoop=1;jettySize=auto;html=1;entryX=0.5;entryY=1;entryDx=0;entryDy=0;" parent="1" source="GSTYfhtXiv9FTKrWvcwD-17" target="GSTYfhtXiv9FTKrWvcwD-22" edge="1">
          <mxGeometry relative="1" as="geometry" />
        </mxCell>
        <mxCell id="GSTYfhtXiv9FTKrWvcwD-40" style="edgeStyle=orthogonalEdgeStyle;rounded=0;orthogonalLoop=1;jettySize=auto;html=1;entryX=0.5;entryY=0;entryDx=0;entryDy=0;" parent="1" source="GSTYfhtXiv9FTKrWvcwD-17" target="GSTYfhtXiv9FTKrWvcwD-39" edge="1">
          <mxGeometry relative="1" as="geometry" />
        </mxCell>
        <mxCell id="GSTYfhtXiv9FTKrWvcwD-17" value="Estado" style="whiteSpace=wrap;html=1;align=center;fillColor=#dae8fc;strokeColor=#6c8ebf;gradientColor=#7ea6e0;" parent="1" vertex="1">
          <mxGeometry x="442.5" y="-90" width="100" height="40" as="geometry" />
        </mxCell>
        <mxCell id="GSTYfhtXiv9FTKrWvcwD-18" value="nombre" style="ellipse;whiteSpace=wrap;html=1;align=center;" parent="1" vertex="1">
          <mxGeometry x="392.5" y="-190" width="100" height="40" as="geometry" />
        </mxCell>
        <mxCell id="GSTYfhtXiv9FTKrWvcwD-20" value="codigo" style="ellipse;whiteSpace=wrap;html=1;align=center;fontStyle=4;" parent="1" vertex="1">
          <mxGeometry x="110" y="-320" width="100" height="40" as="geometry" />
        </mxCell>
        <mxCell id="GSTYfhtXiv9FTKrWvcwD-22" value="codigo" style="ellipse;whiteSpace=wrap;html=1;align=center;fontStyle=4;" parent="1" vertex="1">
          <mxGeometry x="527.5" y="-190" width="100" height="40" as="geometry" />
        </mxCell>
        <mxCell id="GSTYfhtXiv9FTKrWvcwD-24" value="es" style="rhombus;whiteSpace=wrap;html=1;" parent="1" vertex="1">
          <mxGeometry x="200" y="-70" width="80" height="80" as="geometry" />
        </mxCell>
        <mxCell id="GSTYfhtXiv9FTKrWvcwD-27" value="1:N" style="text;html=1;align=center;verticalAlign=middle;resizable=0;points=[];autosize=1;strokeColor=none;fillColor=none;" parent="1" vertex="1">
          <mxGeometry x="250" y="-85" width="40" height="30" as="geometry" />
        </mxCell>
        <mxCell id="GSTYfhtXiv9FTKrWvcwD-30" value="&lt;font style=&quot;font-size: 8px;&quot;&gt;Fk_codigoTipoTierra&lt;/font&gt;" style="ellipse;whiteSpace=wrap;html=1;align=center;fontStyle=4;fillColor=#d5e8d4;strokeColor=#82b366;" parent="1" vertex="1">
          <mxGeometry x="150" y="150" width="100" height="40" as="geometry" />
        </mxCell>
        <mxCell id="GSTYfhtXiv9FTKrWvcwD-33" value="codigo" style="ellipse;whiteSpace=wrap;html=1;align=center;fontStyle=4;" parent="1" vertex="1">
          <mxGeometry x="420" y="280" width="100" height="40" as="geometry" />
        </mxCell>
        <mxCell id="GSTYfhtXiv9FTKrWvcwD-39" value="tiene" style="rhombus;whiteSpace=wrap;html=1;" parent="1" vertex="1">
          <mxGeometry x="330" y="70" width="80" height="80" as="geometry" />
        </mxCell>
        <mxCell id="GSTYfhtXiv9FTKrWvcwD-41" value="1:N" style="text;html=1;align=center;verticalAlign=middle;resizable=0;points=[];autosize=1;strokeColor=none;fillColor=none;" parent="1" vertex="1">
          <mxGeometry x="320" y="60" width="40" height="30" as="geometry" />
        </mxCell>
        <mxCell id="GSTYfhtXiv9FTKrWvcwD-45" value="&lt;font style=&quot;font-size: 8px;&quot;&gt;FK_codigoEstadoTierra&lt;/font&gt;" style="ellipse;whiteSpace=wrap;html=1;align=center;fontStyle=4;fillColor=#d5e8d4;strokeColor=#82b366;" parent="1" vertex="1">
          <mxGeometry x="-80" y="200" width="100" height="40" as="geometry" />
        </mxCell>
        <mxCell id="GSTYfhtXiv9FTKrWvcwD-57" style="edgeStyle=orthogonalEdgeStyle;rounded=0;orthogonalLoop=1;jettySize=auto;html=1;entryX=1;entryY=0.5;entryDx=0;entryDy=0;" parent="1" source="GSTYfhtXiv9FTKrWvcwD-46" target="GSTYfhtXiv9FTKrWvcwD-54" edge="1">
          <mxGeometry relative="1" as="geometry" />
        </mxCell>
        <mxCell id="GSTYfhtXiv9FTKrWvcwD-58" style="edgeStyle=orthogonalEdgeStyle;rounded=0;orthogonalLoop=1;jettySize=auto;html=1;entryX=0.5;entryY=0;entryDx=0;entryDy=0;" parent="1" source="GSTYfhtXiv9FTKrWvcwD-46" target="GSTYfhtXiv9FTKrWvcwD-55" edge="1">
          <mxGeometry relative="1" as="geometry" />
        </mxCell>
        <mxCell id="GSTYfhtXiv9FTKrWvcwD-62" style="edgeStyle=orthogonalEdgeStyle;rounded=0;orthogonalLoop=1;jettySize=auto;html=1;" parent="1" source="GSTYfhtXiv9FTKrWvcwD-46" target="GSTYfhtXiv9FTKrWvcwD-59" edge="1">
          <mxGeometry relative="1" as="geometry" />
        </mxCell>
        <mxCell id="GSTYfhtXiv9FTKrWvcwD-63" style="edgeStyle=orthogonalEdgeStyle;rounded=0;orthogonalLoop=1;jettySize=auto;html=1;entryX=0.5;entryY=0;entryDx=0;entryDy=0;" parent="1" source="GSTYfhtXiv9FTKrWvcwD-46" target="GSTYfhtXiv9FTKrWvcwD-61" edge="1">
          <mxGeometry relative="1" as="geometry" />
        </mxCell>
        <mxCell id="GSTYfhtXiv9FTKrWvcwD-64" style="edgeStyle=orthogonalEdgeStyle;rounded=0;orthogonalLoop=1;jettySize=auto;html=1;" parent="1" source="GSTYfhtXiv9FTKrWvcwD-46" target="GSTYfhtXiv9FTKrWvcwD-65" edge="1">
          <mxGeometry relative="1" as="geometry">
            <mxPoint x="20" y="830" as="targetPoint" />
          </mxGeometry>
        </mxCell>
        <mxCell id="GSTYfhtXiv9FTKrWvcwD-111" style="edgeStyle=orthogonalEdgeStyle;rounded=0;orthogonalLoop=1;jettySize=auto;html=1;" parent="1" source="GSTYfhtXiv9FTKrWvcwD-46" target="GSTYfhtXiv9FTKrWvcwD-112" edge="1">
          <mxGeometry relative="1" as="geometry">
            <mxPoint x="509.9999999999998" y="450" as="targetPoint" />
          </mxGeometry>
        </mxCell>
        <mxCell id="GSTYfhtXiv9FTKrWvcwD-122" style="edgeStyle=orthogonalEdgeStyle;rounded=0;orthogonalLoop=1;jettySize=auto;html=1;" parent="1" source="GSTYfhtXiv9FTKrWvcwD-46" target="GSTYfhtXiv9FTKrWvcwD-123" edge="1">
          <mxGeometry relative="1" as="geometry">
            <mxPoint x="189.99999999999977" y="940" as="targetPoint" />
          </mxGeometry>
        </mxCell>
        <mxCell id="GSTYfhtXiv9FTKrWvcwD-136" style="edgeStyle=orthogonalEdgeStyle;rounded=0;orthogonalLoop=1;jettySize=auto;html=1;entryX=0.5;entryY=0;entryDx=0;entryDy=0;" parent="1" source="GSTYfhtXiv9FTKrWvcwD-46" target="GSTYfhtXiv9FTKrWvcwD-68" edge="1">
          <mxGeometry relative="1" as="geometry" />
        </mxCell>
        <mxCell id="GSTYfhtXiv9FTKrWvcwD-137" style="edgeStyle=orthogonalEdgeStyle;rounded=0;orthogonalLoop=1;jettySize=auto;html=1;entryX=0.5;entryY=1;entryDx=0;entryDy=0;" parent="1" source="GSTYfhtXiv9FTKrWvcwD-46" target="GSTYfhtXiv9FTKrWvcwD-119" edge="1">
          <mxGeometry relative="1" as="geometry" />
        </mxCell>
        <mxCell id="GSTYfhtXiv9FTKrWvcwD-138" style="edgeStyle=orthogonalEdgeStyle;rounded=0;orthogonalLoop=1;jettySize=auto;html=1;" parent="1" source="GSTYfhtXiv9FTKrWvcwD-46" target="GSTYfhtXiv9FTKrWvcwD-139" edge="1">
          <mxGeometry relative="1" as="geometry">
            <mxPoint x="310" y="600" as="targetPoint" />
          </mxGeometry>
        </mxCell>
        <mxCell id="GSTYfhtXiv9FTKrWvcwD-46" value="Alquimista" style="whiteSpace=wrap;html=1;align=center;fillColor=#dae8fc;strokeColor=#6c8ebf;gradientColor=#7ea6e0;" parent="1" vertex="1">
          <mxGeometry x="190" y="720" width="100" height="40" as="geometry" />
        </mxCell>
        <mxCell id="GSTYfhtXiv9FTKrWvcwD-48" style="edgeStyle=orthogonalEdgeStyle;rounded=0;orthogonalLoop=1;jettySize=auto;html=1;" parent="1" source="GSTYfhtXiv9FTKrWvcwD-51" target="GSTYfhtXiv9FTKrWvcwD-52" edge="1">
          <mxGeometry relative="1" as="geometry">
            <mxPoint x="-30" y="960" as="targetPoint" />
          </mxGeometry>
        </mxCell>
        <mxCell id="GSTYfhtXiv9FTKrWvcwD-49" value="" style="edgeStyle=orthogonalEdgeStyle;rounded=0;orthogonalLoop=1;jettySize=auto;html=1;" parent="1" source="GSTYfhtXiv9FTKrWvcwD-51" target="GSTYfhtXiv9FTKrWvcwD-53" edge="1">
          <mxGeometry relative="1" as="geometry" />
        </mxCell>
        <mxCell id="GSTYfhtXiv9FTKrWvcwD-66" style="edgeStyle=orthogonalEdgeStyle;rounded=0;orthogonalLoop=1;jettySize=auto;html=1;entryX=0.5;entryY=1;entryDx=0;entryDy=0;" parent="1" source="GSTYfhtXiv9FTKrWvcwD-51" target="GSTYfhtXiv9FTKrWvcwD-65" edge="1">
          <mxGeometry relative="1" as="geometry" />
        </mxCell>
        <mxCell id="GSTYfhtXiv9FTKrWvcwD-51" value="TipoAlquimista" style="whiteSpace=wrap;html=1;align=center;fillColor=#dae8fc;strokeColor=#6c8ebf;gradientColor=#7ea6e0;" parent="1" vertex="1">
          <mxGeometry x="-30" y="940" width="100" height="40" as="geometry" />
        </mxCell>
        <mxCell id="GSTYfhtXiv9FTKrWvcwD-52" value="nombre" style="ellipse;whiteSpace=wrap;html=1;align=center;" parent="1" vertex="1">
          <mxGeometry x="-160" y="950" width="100" height="40" as="geometry" />
        </mxCell>
        <mxCell id="GSTYfhtXiv9FTKrWvcwD-53" value="codigo" style="ellipse;whiteSpace=wrap;html=1;align=center;fontStyle=4;" parent="1" vertex="1">
          <mxGeometry x="-70" y="1030" width="100" height="40" as="geometry" />
        </mxCell>
        <mxCell id="GSTYfhtXiv9FTKrWvcwD-54" value="nombre" style="ellipse;whiteSpace=wrap;html=1;align=center;" parent="1" vertex="1">
          <mxGeometry x="30" y="660" width="100" height="40" as="geometry" />
        </mxCell>
        <mxCell id="GSTYfhtXiv9FTKrWvcwD-55" value="&lt;font style=&quot;font-size: 11px;&quot;&gt;fechaNacimiento&lt;/font&gt;" style="ellipse;whiteSpace=wrap;html=1;align=center;" parent="1" vertex="1">
          <mxGeometry x="90" y="790" width="100" height="40" as="geometry" />
        </mxCell>
        <mxCell id="GSTYfhtXiv9FTKrWvcwD-59" value="contraseña" style="ellipse;whiteSpace=wrap;html=1;align=center;" parent="1" vertex="1">
          <mxGeometry x="190.5" y="990" width="100" height="40" as="geometry" />
        </mxCell>
        <mxCell id="GSTYfhtXiv9FTKrWvcwD-61" value="riqueza" style="ellipse;whiteSpace=wrap;html=1;align=center;" parent="1" vertex="1">
          <mxGeometry x="250" y="870" width="100" height="40" as="geometry" />
        </mxCell>
        <mxCell id="GSTYfhtXiv9FTKrWvcwD-65" value="es" style="rhombus;whiteSpace=wrap;html=1;" parent="1" vertex="1">
          <mxGeometry x="-20" y="790" width="80" height="80" as="geometry" />
        </mxCell>
        <mxCell id="GSTYfhtXiv9FTKrWvcwD-67" value="1:N" style="text;html=1;align=center;verticalAlign=middle;resizable=0;points=[];autosize=1;strokeColor=none;fillColor=none;" parent="1" vertex="1">
          <mxGeometry x="30" y="770" width="40" height="30" as="geometry" />
        </mxCell>
        <mxCell id="GSTYfhtXiv9FTKrWvcwD-68" value="&lt;font style=&quot;font-size: 7px;&quot;&gt;FK_codigoTipoAlquimista&lt;/font&gt;" style="ellipse;whiteSpace=wrap;html=1;align=center;fontStyle=4;fillColor=#d5e8d4;strokeColor=#82b366;" parent="1" vertex="1">
          <mxGeometry x="280" y="950" width="100" height="40" as="geometry" />
        </mxCell>
        <mxCell id="GSTYfhtXiv9FTKrWvcwD-78" style="edgeStyle=orthogonalEdgeStyle;rounded=0;orthogonalLoop=1;jettySize=auto;html=1;entryX=0;entryY=0.5;entryDx=0;entryDy=0;" parent="1" source="GSTYfhtXiv9FTKrWvcwD-70" target="GSTYfhtXiv9FTKrWvcwD-76" edge="1">
          <mxGeometry relative="1" as="geometry" />
        </mxCell>
        <mxCell id="GSTYfhtXiv9FTKrWvcwD-80" style="edgeStyle=orthogonalEdgeStyle;rounded=0;orthogonalLoop=1;jettySize=auto;html=1;entryX=0;entryY=0.5;entryDx=0;entryDy=0;" parent="1" source="GSTYfhtXiv9FTKrWvcwD-70" target="GSTYfhtXiv9FTKrWvcwD-71" edge="1">
          <mxGeometry relative="1" as="geometry" />
        </mxCell>
        <mxCell id="GSTYfhtXiv9FTKrWvcwD-81" style="edgeStyle=orthogonalEdgeStyle;rounded=0;orthogonalLoop=1;jettySize=auto;html=1;entryX=0;entryY=0.5;entryDx=0;entryDy=0;" parent="1" source="GSTYfhtXiv9FTKrWvcwD-70" target="GSTYfhtXiv9FTKrWvcwD-75" edge="1">
          <mxGeometry relative="1" as="geometry" />
        </mxCell>
        <mxCell id="GSTYfhtXiv9FTKrWvcwD-82" style="edgeStyle=orthogonalEdgeStyle;rounded=0;orthogonalLoop=1;jettySize=auto;html=1;entryX=0;entryY=0.5;entryDx=0;entryDy=0;" parent="1" source="GSTYfhtXiv9FTKrWvcwD-70" target="GSTYfhtXiv9FTKrWvcwD-74" edge="1">
          <mxGeometry relative="1" as="geometry" />
        </mxCell>
        <mxCell id="GSTYfhtXiv9FTKrWvcwD-83" style="edgeStyle=orthogonalEdgeStyle;rounded=0;orthogonalLoop=1;jettySize=auto;html=1;" parent="1" source="GSTYfhtXiv9FTKrWvcwD-70" target="GSTYfhtXiv9FTKrWvcwD-73" edge="1">
          <mxGeometry relative="1" as="geometry" />
        </mxCell>
        <mxCell id="GSTYfhtXiv9FTKrWvcwD-84" style="edgeStyle=orthogonalEdgeStyle;rounded=0;orthogonalLoop=1;jettySize=auto;html=1;" parent="1" source="GSTYfhtXiv9FTKrWvcwD-70" target="GSTYfhtXiv9FTKrWvcwD-72" edge="1">
          <mxGeometry relative="1" as="geometry" />
        </mxCell>
        <mxCell id="GSTYfhtXiv9FTKrWvcwD-113" style="edgeStyle=orthogonalEdgeStyle;rounded=0;orthogonalLoop=1;jettySize=auto;html=1;" parent="1" source="GSTYfhtXiv9FTKrWvcwD-70" target="GSTYfhtXiv9FTKrWvcwD-112" edge="1">
          <mxGeometry relative="1" as="geometry" />
        </mxCell>
        <mxCell id="GSTYfhtXiv9FTKrWvcwD-116" style="edgeStyle=orthogonalEdgeStyle;rounded=0;orthogonalLoop=1;jettySize=auto;html=1;" parent="1" source="GSTYfhtXiv9FTKrWvcwD-70" target="GSTYfhtXiv9FTKrWvcwD-117" edge="1">
          <mxGeometry relative="1" as="geometry">
            <mxPoint x="1190" y="540" as="targetPoint" />
          </mxGeometry>
        </mxCell>
        <mxCell id="GSTYfhtXiv9FTKrWvcwD-70" value="Elemento" style="whiteSpace=wrap;html=1;align=center;fillColor=#dae8fc;strokeColor=#6c8ebf;gradientColor=#7ea6e0;" parent="1" vertex="1">
          <mxGeometry x="810" y="500" width="100" height="40" as="geometry" />
        </mxCell>
        <mxCell id="GSTYfhtXiv9FTKrWvcwD-71" value="nombre" style="ellipse;whiteSpace=wrap;html=1;align=center;" parent="1" vertex="1">
          <mxGeometry x="960" y="430" width="100" height="40" as="geometry" />
        </mxCell>
        <mxCell id="GSTYfhtXiv9FTKrWvcwD-72" value="simbolo" style="ellipse;whiteSpace=wrap;html=1;align=center;" parent="1" vertex="1">
          <mxGeometry x="770" y="630" width="100" height="40" as="geometry" />
        </mxCell>
        <mxCell id="GSTYfhtXiv9FTKrWvcwD-73" value="color" style="ellipse;whiteSpace=wrap;html=1;align=center;" parent="1" vertex="1">
          <mxGeometry x="860" y="680" width="100" height="40" as="geometry" />
        </mxCell>
        <mxCell id="GSTYfhtXiv9FTKrWvcwD-74" value="numeroAtom" style="ellipse;whiteSpace=wrap;html=1;align=center;" parent="1" vertex="1">
          <mxGeometry x="980" y="630" width="100" height="40" as="geometry" />
        </mxCell>
        <mxCell id="GSTYfhtXiv9FTKrWvcwD-75" value="colorHex" style="ellipse;whiteSpace=wrap;html=1;align=center;" parent="1" vertex="1">
          <mxGeometry x="1020" y="570" width="100" height="40" as="geometry" />
        </mxCell>
        <mxCell id="GSTYfhtXiv9FTKrWvcwD-76" value="precioSuger" style="ellipse;whiteSpace=wrap;html=1;align=center;" parent="1" vertex="1">
          <mxGeometry x="1070" y="478" width="100" height="40" as="geometry" />
        </mxCell>
        <mxCell id="GSTYfhtXiv9FTKrWvcwD-88" style="edgeStyle=orthogonalEdgeStyle;rounded=0;orthogonalLoop=1;jettySize=auto;html=1;entryX=0.5;entryY=1;entryDx=0;entryDy=0;" parent="1" source="GSTYfhtXiv9FTKrWvcwD-86" target="GSTYfhtXiv9FTKrWvcwD-87" edge="1">
          <mxGeometry relative="1" as="geometry" />
        </mxCell>
        <mxCell id="GSTYfhtXiv9FTKrWvcwD-104" style="edgeStyle=orthogonalEdgeStyle;rounded=0;orthogonalLoop=1;jettySize=auto;html=1;entryX=0.5;entryY=1;entryDx=0;entryDy=0;" parent="1" source="GSTYfhtXiv9FTKrWvcwD-86" target="GSTYfhtXiv9FTKrWvcwD-91" edge="1">
          <mxGeometry relative="1" as="geometry" />
        </mxCell>
        <mxCell id="GSTYfhtXiv9FTKrWvcwD-105" style="edgeStyle=orthogonalEdgeStyle;rounded=0;orthogonalLoop=1;jettySize=auto;html=1;entryX=0;entryY=0.5;entryDx=0;entryDy=0;" parent="1" source="GSTYfhtXiv9FTKrWvcwD-86" target="GSTYfhtXiv9FTKrWvcwD-92" edge="1">
          <mxGeometry relative="1" as="geometry" />
        </mxCell>
        <mxCell id="GSTYfhtXiv9FTKrWvcwD-106" style="edgeStyle=orthogonalEdgeStyle;rounded=0;orthogonalLoop=1;jettySize=auto;html=1;entryX=0;entryY=0.5;entryDx=0;entryDy=0;" parent="1" source="GSTYfhtXiv9FTKrWvcwD-86" target="GSTYfhtXiv9FTKrWvcwD-93" edge="1">
          <mxGeometry relative="1" as="geometry" />
        </mxCell>
        <mxCell id="GSTYfhtXiv9FTKrWvcwD-110" style="edgeStyle=orthogonalEdgeStyle;rounded=0;orthogonalLoop=1;jettySize=auto;html=1;entryX=0;entryY=0.5;entryDx=0;entryDy=0;" parent="1" source="GSTYfhtXiv9FTKrWvcwD-86" target="GSTYfhtXiv9FTKrWvcwD-89" edge="1">
          <mxGeometry relative="1" as="geometry" />
        </mxCell>
        <mxCell id="GSTYfhtXiv9FTKrWvcwD-120" style="edgeStyle=orthogonalEdgeStyle;rounded=0;orthogonalLoop=1;jettySize=auto;html=1;" parent="1" source="GSTYfhtXiv9FTKrWvcwD-86" target="GSTYfhtXiv9FTKrWvcwD-121" edge="1">
          <mxGeometry relative="1" as="geometry">
            <mxPoint x="1070" y="200" as="targetPoint" />
            <Array as="points">
              <mxPoint x="1050" y="160" />
              <mxPoint x="1070" y="160" />
            </Array>
          </mxGeometry>
        </mxCell>
        <mxCell id="GSTYfhtXiv9FTKrWvcwD-130" style="edgeStyle=orthogonalEdgeStyle;rounded=0;orthogonalLoop=1;jettySize=auto;html=1;" parent="1" source="GSTYfhtXiv9FTKrWvcwD-86" target="GSTYfhtXiv9FTKrWvcwD-129" edge="1">
          <mxGeometry relative="1" as="geometry" />
        </mxCell>
        <mxCell id="GSTYfhtXiv9FTKrWvcwD-133" style="edgeStyle=orthogonalEdgeStyle;rounded=0;orthogonalLoop=1;jettySize=auto;html=1;" parent="1" source="GSTYfhtXiv9FTKrWvcwD-86" target="GSTYfhtXiv9FTKrWvcwD-134" edge="1">
          <mxGeometry relative="1" as="geometry">
            <mxPoint x="950" y="210" as="targetPoint" />
          </mxGeometry>
        </mxCell>
        <mxCell id="GSTYfhtXiv9FTKrWvcwD-86" value="Yacimiento" style="whiteSpace=wrap;html=1;align=center;fillColor=#f8cecc;strokeColor=#b85450;gradientColor=#ea6b66;" parent="1" vertex="1">
          <mxGeometry x="950" y="100" width="100" height="40" as="geometry" />
        </mxCell>
        <mxCell id="GSTYfhtXiv9FTKrWvcwD-87" value="&lt;font style=&quot;font-size: 8px;&quot;&gt;unidadesDisponibles&lt;/font&gt;" style="ellipse;whiteSpace=wrap;html=1;align=center;" parent="1" vertex="1">
          <mxGeometry x="880" y="-140" width="100" height="40" as="geometry" />
        </mxCell>
        <mxCell id="GSTYfhtXiv9FTKrWvcwD-89" value="ubicacion" style="ellipse;whiteSpace=wrap;html=1;align=center;" parent="1" vertex="1">
          <mxGeometry x="1230" y="-10" width="100" height="40" as="geometry" />
        </mxCell>
        <mxCell id="GSTYfhtXiv9FTKrWvcwD-91" value="fecha" style="ellipse;whiteSpace=wrap;html=1;align=center;" parent="1" vertex="1">
          <mxGeometry x="1060" y="-50" width="100" height="40" as="geometry" />
        </mxCell>
        <mxCell id="GSTYfhtXiv9FTKrWvcwD-92" value="&lt;font style=&quot;font-size: 10px;&quot;&gt;horaRecollection&lt;/font&gt;" style="ellipse;whiteSpace=wrap;html=1;align=center;" parent="1" vertex="1">
          <mxGeometry x="1260" y="55" width="100" height="40" as="geometry" />
        </mxCell>
        <mxCell id="GSTYfhtXiv9FTKrWvcwD-93" value="&lt;font style=&quot;font-size: 8px;&quot;&gt;maxTiempoRecollecion&lt;/font&gt;" style="ellipse;whiteSpace=wrap;html=1;align=center;" parent="1" vertex="1">
          <mxGeometry x="1275" y="120" width="100" height="40" as="geometry" />
        </mxCell>
        <mxCell id="GSTYfhtXiv9FTKrWvcwD-112" value="tiene" style="rhombus;whiteSpace=wrap;html=1;" parent="1" vertex="1">
          <mxGeometry x="549.9999999999998" y="500" width="80" height="80" as="geometry" />
        </mxCell>
        <mxCell id="GSTYfhtXiv9FTKrWvcwD-114" value="1:1" style="text;html=1;align=center;verticalAlign=middle;resizable=0;points=[];autosize=1;strokeColor=none;fillColor=none;" parent="1" vertex="1">
          <mxGeometry x="600" y="490" width="40" height="30" as="geometry" />
        </mxCell>
        <mxCell id="GSTYfhtXiv9FTKrWvcwD-117" value="codigo" style="ellipse;whiteSpace=wrap;html=1;align=center;fontStyle=4;" parent="1" vertex="1">
          <mxGeometry x="1140" y="520" width="100" height="40" as="geometry" />
        </mxCell>
        <mxCell id="GSTYfhtXiv9FTKrWvcwD-119" value="id" style="ellipse;whiteSpace=wrap;html=1;align=center;fontStyle=4;" parent="1" vertex="1">
          <mxGeometry x="140.00000000000023" y="600" width="100" height="40" as="geometry" />
        </mxCell>
        <mxCell id="GSTYfhtXiv9FTKrWvcwD-121" value="codigo" style="ellipse;whiteSpace=wrap;html=1;align=center;fontStyle=4;" parent="1" vertex="1">
          <mxGeometry x="1020" y="210" width="100" height="40" as="geometry" />
        </mxCell>
        <mxCell id="GSTYfhtXiv9FTKrWvcwD-123" value="&lt;font style=&quot;font-size: 9px;&quot;&gt;FK_codigoElemento&lt;/font&gt;" style="ellipse;whiteSpace=wrap;html=1;align=center;fontStyle=4;fillColor=#d5e8d4;strokeColor=#82b366;" parent="1" vertex="1">
          <mxGeometry x="119.99999999999977" y="920" width="100" height="40" as="geometry" />
        </mxCell>
        <mxCell id="GSTYfhtXiv9FTKrWvcwD-125" value="&lt;font style=&quot;font-size: 9px;&quot;&gt;FK_codigoElemento&lt;/font&gt;" style="ellipse;whiteSpace=wrap;html=1;align=center;fontStyle=4;fillColor=#d5e8d4;strokeColor=#82b366;" parent="1" vertex="1">
          <mxGeometry x="449.9999999999998" y="350" width="100" height="40" as="geometry" />
        </mxCell>
        <mxCell id="GSTYfhtXiv9FTKrWvcwD-129" value="contiene" style="rhombus;whiteSpace=wrap;html=1;" parent="1" vertex="1">
          <mxGeometry x="729.9999999999998" y="140" width="80" height="80" as="geometry" />
        </mxCell>
        <mxCell id="GSTYfhtXiv9FTKrWvcwD-131" value="1:N" style="text;html=1;align=center;verticalAlign=middle;resizable=0;points=[];autosize=1;strokeColor=none;fillColor=none;" parent="1" vertex="1">
          <mxGeometry x="770" y="125" width="40" height="30" as="geometry" />
        </mxCell>
        <mxCell id="GSTYfhtXiv9FTKrWvcwD-134" value="&lt;font style=&quot;font-size: 10px;&quot;&gt;FK_codigoTierra&lt;/font&gt;" style="ellipse;whiteSpace=wrap;html=1;align=center;fontStyle=4;fillColor=#d5e8d4;strokeColor=#82b366;" parent="1" vertex="1">
          <mxGeometry x="880" y="190" width="100" height="40" as="geometry" />
        </mxCell>
        <mxCell id="GSTYfhtXiv9FTKrWvcwD-139" value="tiene" style="rhombus;whiteSpace=wrap;html=1;" parent="1" vertex="1">
          <mxGeometry x="280" y="540" width="80" height="80" as="geometry" />
        </mxCell>
        <mxCell id="GSTYfhtXiv9FTKrWvcwD-140" value="1:N" style="text;html=1;align=center;verticalAlign=middle;resizable=0;points=[];autosize=1;strokeColor=none;fillColor=none;" parent="1" vertex="1">
          <mxGeometry x="340" y="518" width="40" height="30" as="geometry" />
        </mxCell>
        <mxCell id="GSTYfhtXiv9FTKrWvcwD-143" value="FK_idAlquimista" style="ellipse;whiteSpace=wrap;html=1;align=center;fontStyle=4;fillColor=#d5e8d4;strokeColor=#82b366;" parent="1" vertex="1">
          <mxGeometry x="90" y="320" width="100" height="40" as="geometry" />
        </mxCell>
        <mxCell id="d2Er6vb3EXYCM1V-QBUz-1" style="edgeStyle=orthogonalEdgeStyle;rounded=0;orthogonalLoop=1;jettySize=auto;html=1;exitX=0.5;exitY=1;exitDx=0;exitDy=0;" edge="1" parent="1" source="GSTYfhtXiv9FTKrWvcwD-51" target="GSTYfhtXiv9FTKrWvcwD-51">
          <mxGeometry relative="1" as="geometry" />
        </mxCell>
      </root>
    </mxGraphModel>
  </diagram>
</mxfile>
